<?xml version="1.0" standalone="no"?>
<!DOCTYPE svg PUBLIC "-//W3C//DTD SVG 20010904//EN"
 "http://www.w3.org/TR/2001/REC-SVG-20010904/DTD/svg10.dtd">
<svg version="1.0" xmlns="http://www.w3.org/2000/svg"
 width="16.000000pt" height="16.000000pt" viewBox="0 0 16.000000 16.000000"
 preserveAspectRatio="xMidYMid meet">
<metadata>
Created by potrace 1.11, written by Peter Selinger 2001-2013
</metadata>
<g transform="translate(0.000000,16.000000) scale(0.006723,-0.006723)"
fill="#000000" stroke="none">
<path d="M1045 2338 c-22 -6 -83 -20 -135 -33 -128 -30 -227 -73 -340 -146
-179 -116 -344 -309 -427 -501 -30 -70 -46 -124 -93 -326 -13 -55 -13 -209 0
-264 47 -202 63 -256 93 -326 109 -252 348 -490 596 -593 66 -27 120 -42 319
-89 55 -13 209 -13 264 0 199 47 253 62 319 89 248 103 487 341 596 593 30 70
46 124 93 326 13 55 13 209 0 264 -47 202 -63 256 -93 326 -109 252 -348 490
-596 593 -66 27 -120 42 -319 89 -52 12 -223 11 -277 -2z m715 -633 l0 -135
-195 0 -195 0 0 -585 0 -585 -175 0 -175 0 0 585 0 585 -195 0 -195 0 0 135 0
135 565 0 565 0 0 -135z"/>
</g>
</svg>
