<?xml version="1.0" standalone="no"?>
<!DOCTYPE svg PUBLIC "-//W3C//DTD SVG 20010904//EN"
 "http://www.w3.org/TR/2001/REC-SVG-20010904/DTD/svg10.dtd">
<svg version="1.0" xmlns="http://www.w3.org/2000/svg"
 width="260.000000pt" height="260.000000pt" viewBox="0 0 260.000000 260.000000"
 preserveAspectRatio="xMidYMid meet">
<metadata>
Created by potrace 1.11, written by Peter Selinger 2001-2013
</metadata>
<g transform="translate(0.000000,260.000000) scale(0.100000,-0.100000)"
fill="#000000" stroke="none">
<path d="M1338 2563 c-14 -21 -40 -65 -58 -98 -33 -61 -86 -125 -103 -125 -14
0 -30 23 -89 129 l-52 93 -46 -6 c-55 -7 -157 -44 -263 -93 -66 -31 -83 -44
-104 -80 -25 -42 -49 -63 -74 -63 -7 0 0 14 16 30 35 36 25 39 -19 5 -91 -72
-135 -111 -136 -121 0 -18 54 -61 94 -74 91 -30 174 24 242 156 51 101 100
154 142 154 29 0 35 -7 74 -76 24 -42 71 -109 105 -149 50 -59 70 -74 107 -85
41 -11 49 -10 90 9 52 26 77 56 140 171 26 47 58 95 72 108 46 41 106 24 138
-40 9 -18 22 -42 29 -53 93 -150 130 -188 192 -199 44 -9 105 8 137 36 27 24
98 130 98 146 0 5 -21 24 -47 41 l-48 31 -33 -40 c-19 -22 -38 -40 -44 -40 -5
0 4 17 21 37 17 21 31 44 31 52 0 7 -10 1 -22 -15 -36 -47 -68 -74 -88 -74
-23 0 -63 51 -110 139 -33 63 -37 66 -90 82 -30 10 -93 23 -139 29 -77 11 -84
11 -101 -6 -18 -18 -100 -149 -129 -206 -8 -15 -27 -32 -43 -37 l-29 -10 35
42 c19 23 48 70 66 104 17 35 42 76 56 92 25 31 29 41 15 41 -4 0 -19 -17 -33
-37z"/>
<path d="M207 1998 c-53 -81 -137 -258 -123 -258 2 0 14 19 26 43 34 65 69 97
106 97 37 0 43 -6 83 -85 28 -57 110 -160 155 -196 12 -9 39 -22 60 -28 91
-25 169 28 237 163 50 100 93 146 134 146 39 0 55 -14 91 -78 82 -144 141
-212 201 -230 76 -23 150 34 228 178 55 102 83 130 129 130 41 0 71 -31 121
-125 70 -130 105 -167 170 -184 55 -14 116 3 157 43 18 18 58 77 88 131 60
106 88 135 130 135 42 0 70 -29 130 -135 66 -117 106 -159 165 -174 40 -10 75
-7 75 6 0 30 -46 163 -56 163 -19 0 -70 58 -96 110 -46 92 -82 143 -121 171
-36 26 -48 29 -117 29 -76 0 -78 -1 -117 -38 -41 -40 -148 -221 -137 -231 4
-3 9 -1 11 5 2 6 11 20 19 30 13 17 13 16 0 -12 -17 -34 -51 -69 -40 -40 8 21
-1 20 -35 -5 -17 -13 -36 -19 -47 -15 -17 6 -94 105 -94 121 0 23 -79 131
-113 156 -36 26 -47 29 -121 29 -76 0 -84 -2 -118 -30 -33 -27 -72 -86 -120
-181 -10 -20 -32 -49 -49 -65 -24 -22 -33 -26 -47 -18 -9 6 -48 64 -87 129
-92 153 -108 165 -230 165 -89 0 -92 -1 -126 -32 -20 -18 -55 -67 -78 -108
-67 -117 -92 -150 -118 -156 -31 -8 -48 10 -108 117 -62 109 -83 136 -121 160
-46 28 -59 24 -97 -33z m566 8 c-21 -19 -47 -51 -58 -73 -11 -21 -32 -56 -47
-77 -16 -21 -28 -44 -28 -50 -1 -20 -37 -55 -63 -61 l-26 -7 32 34 c18 19 48
66 67 104 38 74 116 164 143 164 12 0 6 -10 -20 -34z m638 -5 c-21 -21 -58
-76 -82 -122 -42 -81 -88 -139 -109 -139 -6 0 1 12 15 28 14 15 49 69 78 121
36 65 64 103 91 123 52 37 53 35 7 -11z m663 -6 c-4 -8 -11 -15 -16 -15 -6 0
-5 6 2 15 7 8 14 15 16 15 2 0 1 -7 -2 -15z m-34 -45 c-6 -11 -13 -20 -16 -20
-2 0 0 9 6 20 6 11 13 20 16 20 2 0 0 -9 -6 -20z m-27 -45 c-3 -9 -8 -14 -10
-11 -3 3 -2 9 2 15 9 16 15 13 8 -4z m-32 -58 c-10 -9 -11 -8 -5 6 3 10 9 15
12 12 3 -3 0 -11 -7 -18z"/>
<path d="M38 1421 c-23 -22 -40 -43 -35 -47 4 -4 14 2 23 14 18 26 65 52 92
52 14 0 1 -18 -49 -69 -38 -38 -69 -75 -69 -81 0 -6 5 -8 11 -4 7 4 7 -2 -1
-17 -10 -18 -10 -43 0 -121 7 -60 17 -97 23 -95 6 2 29 38 53 82 48 89 85 132
121 141 32 8 51 -11 94 -96 36 -70 150 -193 194 -210 66 -25 141 -2 195 61 14
16 43 63 65 105 22 43 55 92 73 111 56 57 93 44 148 -54 49 -88 117 -177 157
-205 45 -32 111 -31 155 2 41 31 89 96 126 172 29 58 85 118 111 118 46 0 80
-36 149 -163 59 -107 119 -157 190 -157 84 0 131 42 215 191 74 132 121 158
179 100 16 -16 37 -45 46 -63 26 -51 69 -123 91 -153 27 -36 95 -75 132 -75
30 0 30 2 47 80 10 43 16 90 15 102 -2 13 0 29 4 36 12 19 -1 14 -37 -13 -18
-14 -37 -25 -42 -25 -19 0 -72 66 -108 135 -73 141 -130 185 -239 185 -58 0
-67 -3 -105 -35 -23 -20 -59 -69 -83 -113 -55 -101 -84 -139 -119 -157 -28
-15 -29 -14 -63 28 -18 23 -50 72 -71 109 -72 132 -122 168 -231 168 -51 0
-73 -5 -100 -22 -33 -22 -90 -101 -130 -182 -25 -48 -68 -96 -88 -96 -18 0
-28 15 -108 158 -63 111 -110 142 -221 142 -62 0 -79 -4 -110 -25 -40 -27 -76
-76 -122 -165 -31 -59 -60 -96 -88 -111 -22 -12 -49 17 -99 106 -91 167 -127
193 -261 194 -86 0 -86 0 -130 -38z m733 -19 c-61 -64 -104 -122 -141 -191
-30 -55 -41 -67 -65 -69 l-28 -4 29 31 c15 17 54 74 85 128 55 96 101 143 139
143 13 0 9 -9 -19 -38z m635 -6 c-23 -24 -52 -63 -64 -87 -68 -130 -98 -168
-131 -169 -10 0 -4 12 16 33 17 17 52 71 77 119 28 51 63 100 84 118 54 44 64
36 18 -14z m666 0 c-16 -18 -49 -71 -73 -116 -43 -82 -90 -140 -112 -140 -6 0
3 15 19 33 30 31 69 93 109 170 18 34 67 87 82 87 3 0 -8 -15 -25 -34z m-1742
-217 c0 -6 -4 -7 -10 -4 -5 3 -10 11 -10 16 0 6 5 7 10 4 6 -3 10 -11 10 -16z"/>
<path d="M116 881 c-16 -3 -31 -11 -33 -18 -3 -9 4 -10 29 -2 18 5 46 7 61 3
l28 -6 -46 -30 c-25 -16 -45 -36 -45 -44 0 -8 11 -36 25 -62 39 -76 37 -74 72
-57 51 25 78 12 114 -56 18 -33 42 -70 54 -83 12 -13 31 -39 43 -57 53 -86
123 -119 207 -98 55 14 109 71 157 166 18 36 47 81 64 101 25 30 38 36 69 36
45 0 71 -27 125 -129 74 -140 155 -201 234 -175 41 13 106 77 134 132 75 146
115 187 167 174 29 -8 67 -47 92 -95 42 -83 105 -172 134 -190 72 -44 152 -34
211 24 19 19 59 78 89 131 62 109 73 121 117 130 29 6 37 2 73 -36 22 -23 44
-53 49 -66 5 -13 13 -24 18 -24 4 0 24 26 44 57 l37 56 -21 41 c-38 74 -78
116 -142 146 -131 62 -197 35 -275 -112 -19 -35 -45 -80 -57 -100 -24 -37 -68
-68 -99 -68 -15 0 -60 65 -100 144 -39 76 -87 120 -161 145 -145 50 -192 23
-289 -166 -26 -52 -65 -97 -96 -114 -19 -10 -29 2 -74 91 -55 110 -107 164
-169 181 -23 6 -51 16 -63 21 -38 18 -100 13 -135 -12 -34 -23 -88 -93 -110
-145 -32 -73 -98 -145 -132 -145 -3 0 -30 45 -61 100 -70 124 -106 164 -165
180 -25 6 -58 15 -75 20 -57 16 -70 17 -99 11z m749 -20 c18 -7 17 -8 -7 -14
-36 -9 -141 -99 -169 -145 -12 -20 -36 -64 -54 -97 -31 -58 -50 -73 -81 -61
-10 4 -3 17 28 48 24 24 50 57 58 73 82 165 151 225 225 196z m645 -1 c13 -8
12 -10 -3 -10 -26 0 -148 -120 -176 -172 -13 -24 -32 -60 -43 -80 -25 -47 -42
-61 -67 -53 -19 6 -17 10 22 48 23 24 57 74 76 112 38 77 101 152 134 158 37
7 42 7 57 -3z m674 1 c3 -5 -6 -14 -22 -20 -15 -5 -34 -16 -43 -23 -26 -22
-94 -119 -133 -190 -20 -37 -45 -72 -56 -78 -24 -13 -70 -13 -70 0 0 6 7 10
17 10 22 0 85 68 112 121 70 139 109 180 178 188 6 0 14 -3 17 -8z m-1478
-188 c-27 -53 -55 -93 -56 -79 0 10 69 126 76 126 2 0 -7 -21 -20 -47z"/>
<path d="M821 267 c-43 -14 -137 -128 -103 -127 4 0 19 21 34 46 27 44 74 74
115 74 10 0 36 -11 58 -25 l40 -24 -36 6 c-20 3 -53 0 -74 -7 -38 -12 -105
-65 -105 -81 0 -19 217 -94 334 -115 l39 -7 -28 52 c-41 74 -138 183 -182 203
-43 20 -46 20 -92 5z"/>
<path d="M1460 264 c-48 -21 -66 -43 -130 -159 -12 -22 -31 -55 -43 -74 -13
-22 -16 -32 -7 -29 7 2 33 41 58 87 88 162 164 207 243 142 l24 -20 -42 6
c-77 10 -152 -46 -214 -161 l-32 -59 80 5 c44 3 94 13 112 22 18 10 41 14 52
11 23 -8 156 22 165 36 7 12 -29 62 -83 118 -24 24 -43 47 -43 51 0 8 -42 27
-80 34 -14 3 -41 -1 -60 -10z"/>
</g>
</svg>
