<svg id="Слой_1" data-name="Слой 1" xmlns="http://www.w3.org/2000/svg" viewBox="0 0 108.55 19.21">
  <defs>
    <style>
      .cls-1 {
        fill: #fff;
      }
    </style>
  </defs>
  <title>moquin-logo-white</title>
  <g>
    <path class="cls-1" d="M8.33,10.18L8.65,11q0.15-.39.35-0.8l0.35-.74L14,0.65A1.21,1.21,0,0,1,14.21.39,0.55,0.55,0,0,1,14.42.25,0.92,0.92,0,0,1,14.67.18h2.57V16.09h-2.6V4.49l-4.81,9A1.26,1.26,0,0,1,9.4,14a1.11,1.11,0,0,1-.62.17H8.45A1.11,1.11,0,0,1,7.83,14a1.27,1.27,0,0,1-.43-0.48l-4.87-9a2.8,2.8,0,0,0,.06.71,2.28,2.28,0,0,1,0,.64V16.09H0V0.18H2.57a0.92,0.92,0,0,1,.26.06A0.6,0.6,0,0,1,3,.39a1.1,1.1,0,0,1,.19.26L8,9.49Z" transform="translate(0 0)"/>
    <path class="cls-1" d="M39,8.18a8.82,8.82,0,0,1-.58,3.24A7.67,7.67,0,0,1,36.78,14a7.43,7.43,0,0,1-2.54,1.7,9.18,9.18,0,0,1-6.58,0A7.47,7.47,0,0,1,25.11,14a7.64,7.64,0,0,1-1.64-2.58,8.82,8.82,0,0,1-.58-3.24,8.81,8.81,0,0,1,.58-3.24,7.64,7.64,0,0,1,1.64-2.58A7.47,7.47,0,0,1,27.67.61,8.62,8.62,0,0,1,31,0a8.51,8.51,0,0,1,3.29.62,7.53,7.53,0,0,1,2.54,1.7,7.62,7.62,0,0,1,1.64,2.57A8.81,8.81,0,0,1,39,8.18Zm-3,0a7.41,7.41,0,0,0-.35-2.35,5,5,0,0,0-1-1.77,4.29,4.29,0,0,0-1.58-1.11,5.91,5.91,0,0,0-4.2,0,4.33,4.33,0,0,0-1.59,1.11,5,5,0,0,0-1,1.77,7.31,7.31,0,0,0-.36,2.35,7.31,7.31,0,0,0,.35,2.35,4.93,4.93,0,0,0,1,1.76,4.35,4.35,0,0,0,1.59,1.11,5.91,5.91,0,0,0,4.2,0,4.32,4.32,0,0,0,1.58-1.11,4.91,4.91,0,0,0,1-1.76A7.41,7.41,0,0,0,36,8.18Z" transform="translate(0 0)"/>
    <path class="cls-1" d="M59.91,8.18a9.24,9.24,0,0,1-.22,2A8.37,8.37,0,0,1,59.06,12a7.61,7.61,0,0,1-1,1.56,7.14,7.14,0,0,1-1.35,1.25l4,4.4H58.29a3,3,0,0,1-1-.14,1.86,1.86,0,0,1-.78-0.53L54.18,16A8.52,8.52,0,0,1,53,16.2a9.47,9.47,0,0,1-1.23.08,8.61,8.61,0,0,1-3.29-.61A7.47,7.47,0,0,1,46,14a7.64,7.64,0,0,1-1.64-2.58,8.82,8.82,0,0,1-.58-3.19,8.81,8.81,0,0,1,.58-3.24A7.64,7.64,0,0,1,46,2.31,7.47,7.47,0,0,1,48.56.61,8.62,8.62,0,0,1,51.85,0a8.51,8.51,0,0,1,3.29.62,7.53,7.53,0,0,1,2.54,1.7,7.62,7.62,0,0,1,1.64,2.57A8.81,8.81,0,0,1,59.91,8.18Zm-3,0a7.41,7.41,0,0,0-.35-2.35,5,5,0,0,0-1-1.77A4.29,4.29,0,0,0,54,2.95a5.91,5.91,0,0,0-4.2,0,4.33,4.33,0,0,0-1.59,1.11,5,5,0,0,0-1,1.77,7.31,7.31,0,0,0-.38,2.35,7.31,7.31,0,0,0,.35,2.35,4.93,4.93,0,0,0,1,1.76,4.35,4.35,0,0,0,1.59,1.11,5.91,5.91,0,0,0,4.2,0,4.32,4.32,0,0,0,1.58-1.11,4.91,4.91,0,0,0,1-1.76,7.41,7.41,0,0,0,.34-2.35h0Z" transform="translate(0 0)"/>
    <path class="cls-1" d="M71.94,13.7a3.91,3.91,0,0,0,1.53-.29,3.2,3.2,0,0,0,1.14-.8,3.51,3.51,0,0,0,.71-1.25,5.16,5.16,0,0,0,.25-1.65V0.18h3V9.71a7.35,7.35,0,0,1-.46,2.62,5.92,5.92,0,0,1-1.31,2.08,6,6,0,0,1-2.08,1.36,8,8,0,0,1-5.5,0,5.83,5.83,0,0,1-3.38-3.44,7.35,7.35,0,0,1-.46-2.62V0.18h3V9.69a5.16,5.16,0,0,0,.25,1.65,3.61,3.61,0,0,0,.71,1.26,3.12,3.12,0,0,0,1.14.81A3.91,3.91,0,0,0,71.94,13.7Z" transform="translate(0 0)"/>
    <path class="cls-1" d="M88.19,16.09h-3V0.18h3V16.09Z" transform="translate(0 0)"/>
    <path class="cls-1" d="M96.94,0.18a0.79,0.79,0,0,1,.24.07,0.81,0.81,0,0,1,.2.14,2.27,2.27,0,0,1,.22.25L106,11.29a4.56,4.56,0,0,0-.06-0.75,2,2,0,0,1,0-.69V0.18h2.61V16.09H107a1.36,1.36,0,0,1-.58-0.11,1.3,1.3,0,0,1-.45-0.4L97.6,5v11.1H95.06V0.18h1.88Z" transform="translate(0 0)"/>
  </g>
</svg>
